<?xml version="1.0" encoding="utf-8"?>
<!-- Generator: Adobe Illustrator 27.9.0, SVG Export Plug-In . SVG Version: 6.00 Build 0)  -->
<svg version="1.1" id="Layer_1" xmlns="http://www.w3.org/2000/svg" xmlns:xlink="http://www.w3.org/1999/xlink" x="0px" y="0px"
	 viewBox="0 0 120.75 111.91" style="enable-background:new 0 0 120.75 111.91;" xml:space="preserve">
<style type="text/css">
	.st0{fill:#EC008C;}
	.st1{font-family:'BoteraTFE-RegularStencil';}
	.st2{font-size:15.4511px;}
</style>
<g>
	<path class="st0" d="M36.51,88.64c0,0.58-0.39,0.87-1.47,0.87c-0.77,0-4.89-0.19-9.58-0.19c-4.8,0-8.62,0.19-9.3,0.19
		c-1.17,0-1.56-0.29-1.56-0.87c0-0.5,0.39-0.88,0.87-0.88c0.5,0,1.37,0.19,2.06,0.19c3.52,0,5.96-3.42,7.04-6.26l2.7-6.69h2.74
		l-2.9,7.17c-0.87,2.35-1.47,5.77,6.46,5.77c0.7,0,1.57-0.19,2.06-0.19C36.12,87.76,36.51,88.14,36.51,88.64z"/>
	<path class="st0" d="M44.04,40.3l-8.61,21.29h-2.75l9.5-23.54c0.39-0.97,1.17-0.97,1.56,0l0.3,0.68
		C44.24,39.23,44.24,39.82,44.04,40.3z"/>
	<path class="st0" d="M51.55,25.19l-0.81-1.96l-0.34-0.83c-0.26,0-0.62,0.32-1.05,0.81c-0.39,0.44-0.84,1.02-1.35,1.63
		c-1.41,1.68-3.3,3.62-5.63,3.62c-0.58,0,0.6,2.35,3.23,7.92l9.86,24.1V34.77L51.55,25.19z"/>
	<path class="st0" d="M105.07,71.23c-0.58,0-1.07,0.39-1.07,1.07c0,3.13-1.77,9.19-6.66,12.23c-2.74,1.67-5.87,1.96-9.01,1.96H81
		c-1.17,0-2.15,0-3.04-0.1c-0.77-0.1-1.27,0.29-1.27,1.07v0.58c0,0.68,0.5,1.18,1.18,1.18h21.91c2.65,0,3.92,0.29,4.6,0.29
		c0.58,0,1.08-0.49,1.08-1.07v-2.15c0-6.07,0.68-11.84,0.68-13.99C106.16,71.71,105.66,71.23,105.07,71.23z"/>
	<path class="st0" d="M96.85,55.36c0,4.27,0.17,7.68,0.17,8.29c0,1.04-0.25,1.38-0.79,1.38c-0.31,0-0.58-0.18-0.71-0.45
		c-0.04-0.09-0.07-0.2-0.07-0.32c0-0.19,0.03-0.45,0.07-0.73c0.04-0.36,0.1-0.76,0.1-1.1c0-3.84-3.13-5.93-5.57-5.93h-4.87
		c-0.62,0-1.06-0.44-1.06-1.05V55.1c0-0.61,0.44-1.05,1.06-1.05h4.87c2.44,0,5.57-2.09,5.57-5.92c0-0.62-0.17-1.4-0.17-1.84
		c0-0.43,0.34-0.77,0.77-0.77c0.54,0,0.79,0.34,0.79,1.3C97.02,47.52,96.85,51.18,96.85,55.36z"/>
	<path class="st0" d="M101.85,26.31v-2.15c0-0.58-0.5-1.07-1.08-1.07c-0.1,0-1.95,0.29-4.6,0.29H77.88c-0.68,0-1.18,0.5-1.18,1.18
		v0.39c0,0.68,0.5,1.18,1.18,1.18h6.84c3.13,0,6.27,0.29,9.01,1.95c4.89,3.04,6.65,9.09,6.65,12.23c0,0.68,0.49,1.08,1.07,1.08
		c0.58,0,1.08-0.5,1.08-1.08C102.54,38.15,101.85,32.38,101.85,26.31z"/>
	<path class="st0" d="M72.79,24.55v37.04H63.2V31.01c0-2.15-1.27-4.79-3.92-5.82c-0.71-0.29-1.52-0.44-2.44-0.44
		c-0.34,0-0.74,0.04-1.1,0.09c-0.36,0.06-0.72,0.1-0.96,0.1c-0.49,0-0.87-0.39-0.87-0.88c0-0.58,0.39-0.87,1.56-0.87
		c0.15,0,0.74,0.01,1.62,0.02c0.41,0.01,0.87,0.01,1.39,0.02c3.42,0.06,9.04,0.14,13.13,0.14C72.4,23.37,72.79,23.87,72.79,24.55z"
		/>
	<path class="st0" d="M63.2,75h9.59v13.05c0,0.68-0.4,1.18-1.18,1.18c-2.44,0-5.42,0.03-8.14,0.07c-4.06,0.07-7.58,0.13-8,0.13
		c-1.17,0-1.56-0.3-1.56-0.88c0-0.5,0.39-0.88,0.87-0.88c0.5,0,1.38,0.2,2.06,0.2c4.3,0,6.36-3.52,6.36-6.27V75z"/>
	<path class="st0" d="M95.52,63.52v1.05c-0.04-0.09-0.07-0.2-0.07-0.32C95.45,64.06,95.48,63.8,95.52,63.52z"/>
	<text transform="matrix(1 0 0 1 26.2582 73.9457)" class="st0 st1 st2">AllureEvent</text>
</g>
</svg>
